<mxfile host="app.diagrams.net" modified="2024-07-15T22:42:26.001Z" agent="Mozilla/5.0 (X11; Linux x86_64; rv:128.0) Gecko/20100101 Firefox/128.0" etag="gkHfIrGt6Q6ayFFsxL7h" version="24.6.5" type="device">
  <diagram name="第 1 页" id="A09lGtO91ABeVb0lPZ-M">
    <mxGraphModel dx="1185" dy="452" grid="0" gridSize="10" guides="1" tooltips="1" connect="1" arrows="1" fold="1" page="1" pageScale="1" pageWidth="1169" pageHeight="827" background="none" math="0" shadow="0">
      <root>
        <mxCell id="0" />
        <mxCell id="1" parent="0" />
        <mxCell id="rQoA9Tk0U78shAQG84SL-3" value="" style="ellipse;whiteSpace=wrap;html=1;labelBackgroundColor=none;rounded=1;fillColor=#fad9d5;strokeColor=#ae4132;" parent="1" vertex="1">
          <mxGeometry x="362" y="318.5" width="221" height="79" as="geometry" />
        </mxCell>
        <mxCell id="P-kxANTKAj5TKY9pIXBq-4" value="" style="endArrow=classic;html=1;rounded=1;fontColor=default;labelBackgroundColor=none;entryX=0;entryY=0.5;entryDx=0;entryDy=0;exitX=1.041;exitY=0.682;exitDx=0;exitDy=0;exitPerimeter=0;" parent="1" source="rQoA9Tk0U78shAQG84SL-39" target="rQoA9Tk0U78shAQG84SL-45" edge="1">
          <mxGeometry width="50" height="50" relative="1" as="geometry">
            <mxPoint x="35" y="64.97" as="sourcePoint" />
            <mxPoint x="209.98400000000004" y="66.00400000000002" as="targetPoint" />
          </mxGeometry>
        </mxCell>
        <mxCell id="rQoA9Tk0U78shAQG84SL-46" value="&lt;div&gt;&lt;font face=&quot;Helvetica&quot;&gt;send mqtt message:&lt;/font&gt;&lt;/div&gt;&lt;div&gt;&lt;font style=&quot;font-size: 9px;&quot; face=&quot;Helvetica&quot;&gt;data, signature, project_id&lt;br&gt;&lt;/font&gt;&lt;/div&gt;" style="edgeLabel;html=1;align=center;verticalAlign=middle;resizable=0;points=[];" parent="P-kxANTKAj5TKY9pIXBq-4" vertex="1" connectable="0">
          <mxGeometry x="-0.1048" y="2" relative="1" as="geometry">
            <mxPoint as="offset" />
          </mxGeometry>
        </mxCell>
        <mxCell id="P-kxANTKAj5TKY9pIXBq-16" value="&lt;div&gt;&lt;font color=&quot;#660000&quot;&gt;coordinator&lt;/font&gt;&lt;/div&gt;" style="rounded=1;whiteSpace=wrap;html=1;labelBackgroundColor=none;fillColor=#fad9d5;strokeColor=#ae4132;" parent="1" vertex="1">
          <mxGeometry x="400.5" y="42" width="126" height="59" as="geometry" />
        </mxCell>
        <mxCell id="P-kxANTKAj5TKY9pIXBq-19" value="P2P network" style="ellipse;shape=cloud;whiteSpace=wrap;html=1;labelBackgroundColor=none;rounded=1;" parent="1" vertex="1">
          <mxGeometry x="399" y="118" width="120" height="80" as="geometry" />
        </mxCell>
        <mxCell id="P-kxANTKAj5TKY9pIXBq-41" value="&lt;font color=&quot;#660000&quot;&gt;prover&lt;/font&gt;" style="rounded=1;whiteSpace=wrap;html=1;labelBackgroundColor=none;fillColor=#fad9d5;strokeColor=#ae4132;" parent="1" vertex="1">
          <mxGeometry x="400.5" y="219" width="126" height="59" as="geometry" />
        </mxCell>
        <mxCell id="P-kxANTKAj5TKY9pIXBq-43" value="" style="endArrow=classic;html=1;rounded=1;entryX=0.19;entryY=-0.017;entryDx=0;entryDy=0;entryPerimeter=0;exitX=0.206;exitY=0.842;exitDx=0;exitDy=0;exitPerimeter=0;fontColor=default;labelBackgroundColor=none;" parent="1" source="P-kxANTKAj5TKY9pIXBq-19" target="P-kxANTKAj5TKY9pIXBq-41" edge="1">
          <mxGeometry width="50" height="50" relative="1" as="geometry">
            <mxPoint x="227" y="680" as="sourcePoint" />
            <mxPoint x="7" y="770" as="targetPoint" />
          </mxGeometry>
        </mxCell>
        <mxCell id="rQoA9Tk0U78shAQG84SL-5" value="send task_id with messages[] " style="edgeLabel;html=1;align=center;verticalAlign=middle;resizable=0;points=[];" parent="P-kxANTKAj5TKY9pIXBq-43" vertex="1" connectable="0">
          <mxGeometry x="-0.069" y="-3" relative="1" as="geometry">
            <mxPoint x="-14" as="offset" />
          </mxGeometry>
        </mxCell>
        <mxCell id="P-kxANTKAj5TKY9pIXBq-52" value="" style="endArrow=classic;html=1;rounded=1;exitX=1;exitY=0.25;exitDx=0;exitDy=0;fontColor=default;labelBackgroundColor=none;strokeWidth=1;entryX=0;entryY=0.5;entryDx=0;entryDy=0;entryPerimeter=0;" parent="1" source="P-kxANTKAj5TKY9pIXBq-16" target="rQoA9Tk0U78shAQG84SL-37" edge="1">
          <mxGeometry width="50" height="50" relative="1" as="geometry">
            <mxPoint x="637" y="970" as="sourcePoint" />
            <mxPoint x="108.5" y="164.4999999999999" as="targetPoint" />
          </mxGeometry>
        </mxCell>
        <mxCell id="P-kxANTKAj5TKY9pIXBq-53" value="&lt;div&gt;&lt;br&gt;&lt;/div&gt;" style="edgeLabel;html=1;align=center;verticalAlign=middle;resizable=0;points=[];labelBackgroundColor=none;rounded=1;" parent="P-kxANTKAj5TKY9pIXBq-52" vertex="1" connectable="0">
          <mxGeometry x="-0.0121" y="-1" relative="1" as="geometry">
            <mxPoint x="-4" y="-16" as="offset" />
          </mxGeometry>
        </mxCell>
        <mxCell id="rQoA9Tk0U78shAQG84SL-10" value="&lt;div&gt;Send proof to blockchain&lt;/div&gt;" style="edgeLabel;html=1;align=center;verticalAlign=middle;resizable=0;points=[];" parent="P-kxANTKAj5TKY9pIXBq-52" vertex="1" connectable="0">
          <mxGeometry x="-0.0283" y="1" relative="1" as="geometry">
            <mxPoint as="offset" />
          </mxGeometry>
        </mxCell>
        <mxCell id="P-kxANTKAj5TKY9pIXBq-42" value="" style="endArrow=classic;html=1;rounded=1;fontColor=default;labelBackgroundColor=none;exitX=0.078;exitY=1.003;exitDx=0;exitDy=0;entryX=0.197;entryY=0.099;entryDx=0;entryDy=0;entryPerimeter=0;exitPerimeter=0;" parent="1" source="P-kxANTKAj5TKY9pIXBq-41" target="rQoA9Tk0U78shAQG84SL-3" edge="1">
          <mxGeometry width="50" height="50" relative="1" as="geometry">
            <mxPoint x="-15" y="788.14" as="sourcePoint" />
            <mxPoint x="254.50499999999988" y="480.84199999999987" as="targetPoint" />
          </mxGeometry>
        </mxCell>
        <mxCell id="rQoA9Tk0U78shAQG84SL-8" value="&lt;div&gt;grpc send:&lt;br&gt;&lt;/div&gt;&lt;font style=&quot;font-size: 9px;&quot;&gt;circuit, proving.key, []messages&lt;/font&gt;" style="edgeLabel;html=1;align=center;verticalAlign=middle;resizable=0;points=[];" parent="P-kxANTKAj5TKY9pIXBq-42" vertex="1" connectable="0">
          <mxGeometry x="-0.0329" y="-3" relative="1" as="geometry">
            <mxPoint x="-2" y="-7" as="offset" />
          </mxGeometry>
        </mxCell>
        <mxCell id="P-kxANTKAj5TKY9pIXBq-60" value="&lt;div&gt;&lt;font color=&quot;#660000&quot; style=&quot;font-size: 12px;&quot; face=&quot;Helvetica&quot;&gt;project configs&lt;/font&gt;&lt;/div&gt;&lt;div&gt;&lt;font style=&quot;font-size: 10px;&quot; face=&quot;DFGghioapLaS5mhI9reb&quot;&gt;compiled circuit&lt;/font&gt;&lt;/div&gt;&lt;div&gt;&lt;font style=&quot;font-size: 10px;&quot; face=&quot;DFGghioapLaS5mhI9reb&quot;&gt;proving.key&lt;/font&gt;&lt;/div&gt;&lt;div&gt;&lt;font style=&quot;font-size: 10px;&quot; face=&quot;Helvetica&quot;&gt;smart contract adress&lt;/font&gt;&lt;br&gt;&lt;/div&gt;&lt;div&gt;&lt;br&gt;&lt;/div&gt;&lt;div&gt;&lt;font style=&quot;font-size: 8px;&quot;&gt;(ipfs)&lt;/font&gt;&lt;br&gt;&lt;/div&gt;" style="shape=cylinder3;whiteSpace=wrap;html=1;boundedLbl=1;backgroundOutline=1;size=15;labelBackgroundColor=none;rounded=1;fillColor=#fad9d5;strokeColor=#ae4132;" parent="1" vertex="1">
          <mxGeometry x="654" y="124" width="107" height="138" as="geometry" />
        </mxCell>
        <mxCell id="zauLdbbxjyopaiMLOlRp-5" value="&lt;font color=&quot;#660000&quot;&gt;accumulated messages&lt;/font&gt;" style="shape=cylinder3;whiteSpace=wrap;html=1;boundedLbl=1;backgroundOutline=1;size=15;labelBackgroundColor=none;rounded=1;fillColor=#fad9d5;strokeColor=#ae4132;" parent="1" vertex="1">
          <mxGeometry x="225" y="147" width="94.5" height="108" as="geometry" />
        </mxCell>
        <mxCell id="zauLdbbxjyopaiMLOlRp-7" value="" style="endArrow=classic;html=1;rounded=1;entryX=0.41;entryY=-0.014;entryDx=0;entryDy=0;exitX=1;exitY=0.5;exitDx=0;exitDy=0;fontColor=default;labelBackgroundColor=none;entryPerimeter=0;" parent="1" source="P-kxANTKAj5TKY9pIXBq-16" target="P-kxANTKAj5TKY9pIXBq-60" edge="1">
          <mxGeometry width="50" height="50" relative="1" as="geometry">
            <mxPoint x="280" y="326.5000000000001" as="sourcePoint" />
            <mxPoint x="428" y="239" as="targetPoint" />
          </mxGeometry>
        </mxCell>
        <mxCell id="rQoA9Tk0U78shAQG84SL-26" value="&lt;div&gt;fetch project config&lt;/div&gt;&lt;div&gt;(blockchain related)&lt;br&gt;&lt;/div&gt;" style="edgeLabel;html=1;align=center;verticalAlign=middle;resizable=0;points=[];" parent="zauLdbbxjyopaiMLOlRp-7" vertex="1" connectable="0">
          <mxGeometry x="-0.1518" y="2" relative="1" as="geometry">
            <mxPoint x="8" y="7" as="offset" />
          </mxGeometry>
        </mxCell>
        <mxCell id="zauLdbbxjyopaiMLOlRp-9" value="" style="endArrow=classic;html=1;rounded=1;fontColor=default;labelBackgroundColor=none;entryX=1;entryY=0;entryDx=0;entryDy=15;entryPerimeter=0;" parent="1" target="zauLdbbxjyopaiMLOlRp-5" edge="1">
          <mxGeometry width="50" height="50" relative="1" as="geometry">
            <mxPoint x="403" y="96" as="sourcePoint" />
            <mxPoint x="544" y="125" as="targetPoint" />
          </mxGeometry>
        </mxCell>
        <mxCell id="rQoA9Tk0U78shAQG84SL-24" value="fetch []messages" style="edgeLabel;html=1;align=center;verticalAlign=middle;resizable=0;points=[];" parent="zauLdbbxjyopaiMLOlRp-9" vertex="1" connectable="0">
          <mxGeometry x="-0.1594" y="-3" relative="1" as="geometry">
            <mxPoint x="1" y="-7" as="offset" />
          </mxGeometry>
        </mxCell>
        <mxCell id="zauLdbbxjyopaiMLOlRp-11" value="" style="endArrow=classic;html=1;rounded=1;fontColor=default;labelBackgroundColor=none;exitX=0.25;exitY=1;exitDx=0;exitDy=0;strokeWidth=1;entryX=0.145;entryY=0;entryDx=0;entryDy=4.35;entryPerimeter=0;" parent="1" source="rQoA9Tk0U78shAQG84SL-45" target="zauLdbbxjyopaiMLOlRp-5" edge="1">
          <mxGeometry width="50" height="50" relative="1" as="geometry">
            <mxPoint x="338.0000000000001" y="74.5" as="sourcePoint" />
            <mxPoint x="630" y="96" as="targetPoint" />
          </mxGeometry>
        </mxCell>
        <mxCell id="rQoA9Tk0U78shAQG84SL-11" value="&lt;div&gt;publish messages&lt;/div&gt;&lt;div&gt;based on theshold&lt;br&gt;&lt;/div&gt;" style="edgeLabel;html=1;align=center;verticalAlign=middle;resizable=0;points=[];" parent="zauLdbbxjyopaiMLOlRp-11" vertex="1" connectable="0">
          <mxGeometry x="-0.1451" y="1" relative="1" as="geometry">
            <mxPoint as="offset" />
          </mxGeometry>
        </mxCell>
        <mxCell id="rQoA9Tk0U78shAQG84SL-20" value="" style="endArrow=classic;html=1;rounded=0;exitX=0.681;exitY=0.012;exitDx=0;exitDy=0;exitPerimeter=0;" parent="1" source="rQoA9Tk0U78shAQG84SL-3" edge="1">
          <mxGeometry width="50" height="50" relative="1" as="geometry">
            <mxPoint x="511" y="320" as="sourcePoint" />
            <mxPoint x="511" y="280" as="targetPoint" />
          </mxGeometry>
        </mxCell>
        <mxCell id="rQoA9Tk0U78shAQG84SL-21" value="grpc send: proof" style="edgeLabel;html=1;align=center;verticalAlign=middle;resizable=0;points=[];" parent="rQoA9Tk0U78shAQG84SL-20" vertex="1" connectable="0">
          <mxGeometry x="0.1155" y="-3" relative="1" as="geometry">
            <mxPoint x="23" y="-1" as="offset" />
          </mxGeometry>
        </mxCell>
        <mxCell id="rQoA9Tk0U78shAQG84SL-22" value="" style="endArrow=classic;html=1;rounded=0;exitX=0.843;exitY=0.193;exitDx=0;exitDy=0;exitPerimeter=0;entryX=0.792;entryY=0.986;entryDx=0;entryDy=0;entryPerimeter=0;" parent="1" source="P-kxANTKAj5TKY9pIXBq-19" target="P-kxANTKAj5TKY9pIXBq-16" edge="1">
          <mxGeometry width="50" height="50" relative="1" as="geometry">
            <mxPoint x="373" y="320" as="sourcePoint" />
            <mxPoint x="365" y="199" as="targetPoint" />
          </mxGeometry>
        </mxCell>
        <mxCell id="rQoA9Tk0U78shAQG84SL-42" value="&lt;div&gt;send proof&lt;/div&gt;" style="edgeLabel;html=1;align=center;verticalAlign=middle;resizable=0;points=[];" parent="rQoA9Tk0U78shAQG84SL-22" vertex="1" connectable="0">
          <mxGeometry x="0.2188" relative="1" as="geometry">
            <mxPoint y="7" as="offset" />
          </mxGeometry>
        </mxCell>
        <mxCell id="rQoA9Tk0U78shAQG84SL-37" value="&lt;div&gt;&lt;font style=&quot;background-color: rgb(250, 217, 213);&quot; color=&quot;#660000&quot;&gt;Blockchain&lt;br&gt;&lt;/font&gt;&lt;/div&gt;&lt;div&gt;&lt;font style=&quot;background-color: rgb(250, 217, 213);&quot; color=&quot;#660000&quot;&gt;Contract&lt;/font&gt;&lt;/div&gt;" style="html=1;whiteSpace=wrap;shape=isoCube2;backgroundOutline=1;isoAngle=15;fillColor=#fad9d5;strokeColor=#ae4132;" parent="1" vertex="1">
          <mxGeometry x="702" y="10" width="90" height="100" as="geometry" />
        </mxCell>
        <mxCell id="rQoA9Tk0U78shAQG84SL-39" value="" style="shape=actor;whiteSpace=wrap;html=1;fillColor=#fad9d5;strokeColor=#ae4132;" parent="1" vertex="1">
          <mxGeometry x="21" y="20" width="50" height="70" as="geometry" />
        </mxCell>
        <mxCell id="rQoA9Tk0U78shAQG84SL-41" value="" style="endArrow=none;html=1;rounded=0;entryX=0.8;entryY=0.8;entryDx=0;entryDy=0;entryPerimeter=0;exitX=0.75;exitY=0;exitDx=0;exitDy=0;" parent="1" source="P-kxANTKAj5TKY9pIXBq-41" target="P-kxANTKAj5TKY9pIXBq-19" edge="1">
          <mxGeometry width="50" height="50" relative="1" as="geometry">
            <mxPoint x="283" y="388" as="sourcePoint" />
            <mxPoint x="333" y="338" as="targetPoint" />
          </mxGeometry>
        </mxCell>
        <mxCell id="rQoA9Tk0U78shAQG84SL-43" value="" style="endArrow=none;html=1;rounded=0;entryX=0.25;entryY=1;entryDx=0;entryDy=0;exitX=0.272;exitY=0.188;exitDx=0;exitDy=0;exitPerimeter=0;" parent="1" source="P-kxANTKAj5TKY9pIXBq-19" target="P-kxANTKAj5TKY9pIXBq-16" edge="1">
          <mxGeometry width="50" height="50" relative="1" as="geometry">
            <mxPoint x="283" y="388" as="sourcePoint" />
            <mxPoint x="333" y="338" as="targetPoint" />
          </mxGeometry>
        </mxCell>
        <mxCell id="rQoA9Tk0U78shAQG84SL-45" value="&lt;div&gt;&lt;font color=&quot;#660000&quot;&gt;sequencer&lt;/font&gt;&lt;/div&gt;" style="rounded=1;whiteSpace=wrap;html=1;fillColor=#fad9d5;strokeColor=#ae4132;" parent="1" vertex="1">
          <mxGeometry x="209" y="30" width="120" height="60" as="geometry" />
        </mxCell>
        <mxCell id="rQoA9Tk0U78shAQG84SL-48" value="..." style="ellipse;whiteSpace=wrap;html=1;labelBackgroundColor=none;rounded=1;fillColor=none;fontColor=#333333;strokeColor=default;dashed=1;" parent="1" vertex="1">
          <mxGeometry x="581" y="359.5" width="64" height="38" as="geometry" />
        </mxCell>
        <mxCell id="P-kxANTKAj5TKY9pIXBq-46" value="" style="endArrow=classic;html=1;rounded=1;exitX=1;exitY=0.5;exitDx=0;exitDy=0;fontColor=default;labelBackgroundColor=none;entryX=0;entryY=1;entryDx=0;entryDy=-15;entryPerimeter=0;" parent="1" source="P-kxANTKAj5TKY9pIXBq-41" target="P-kxANTKAj5TKY9pIXBq-60" edge="1">
          <mxGeometry width="50" height="50" relative="1" as="geometry">
            <mxPoint x="557" y="810" as="sourcePoint" />
            <mxPoint x="465" y="599.5" as="targetPoint" />
          </mxGeometry>
        </mxCell>
        <mxCell id="rQoA9Tk0U78shAQG84SL-7" value="&lt;div&gt;fetch project config&lt;/div&gt;&lt;div&gt;for task_id&lt;br&gt;&lt;/div&gt;" style="edgeLabel;html=1;align=center;verticalAlign=middle;resizable=0;points=[];" parent="P-kxANTKAj5TKY9pIXBq-46" vertex="1" connectable="0">
          <mxGeometry x="-0.2094" y="-1" relative="1" as="geometry">
            <mxPoint x="6" as="offset" />
          </mxGeometry>
        </mxCell>
        <mxCell id="I9owRkMOQYYzmNppglRm-4" value="&lt;font style=&quot;font-size: 10px;&quot;&gt;verify signature&lt;/font&gt;s" style="ellipse;whiteSpace=wrap;html=1;labelBackgroundColor=none;rounded=1;fillColor=#fad9d5;strokeColor=#ae4132;" vertex="1" parent="1">
          <mxGeometry x="376" y="335.5" width="92" height="45" as="geometry" />
        </mxCell>
        <mxCell id="I9owRkMOQYYzmNppglRm-5" value="&lt;font color=&quot;#660000&quot;&gt;ZoKrates&lt;/font&gt;" style="rounded=0;whiteSpace=wrap;html=1;fillColor=none;glass=0;strokeColor=none;" vertex="1" parent="1">
          <mxGeometry x="442" y="318.5" width="54" height="24" as="geometry" />
        </mxCell>
        <mxCell id="I9owRkMOQYYzmNppglRm-7" value="&lt;font style=&quot;font-size: 10px;&quot;&gt;perform computations&lt;/font&gt;" style="ellipse;whiteSpace=wrap;html=1;labelBackgroundColor=none;rounded=1;fillColor=#fad9d5;strokeColor=#ae4132;" vertex="1" parent="1">
          <mxGeometry x="479" y="335" width="92" height="46" as="geometry" />
        </mxCell>
        <mxCell id="I9owRkMOQYYzmNppglRm-10" value="" style="shape=actor;whiteSpace=wrap;html=1;fillColor=#fad9d5;strokeColor=#ae4132;" vertex="1" parent="1">
          <mxGeometry x="14" y="20" width="50" height="70" as="geometry" />
        </mxCell>
        <mxCell id="I9owRkMOQYYzmNppglRm-11" value="&lt;font color=&quot;#660000&quot; style=&quot;font-size: 13px;&quot;&gt;device&lt;/font&gt;s" style="shape=actor;whiteSpace=wrap;html=1;fillColor=#fad9d5;strokeColor=#ae4132;" vertex="1" parent="1">
          <mxGeometry x="7" y="20" width="50" height="70" as="geometry" />
        </mxCell>
      </root>
    </mxGraphModel>
  </diagram>
</mxfile>
